<?xml version="1.0" encoding="UTF-8" standalone="no"?> <!-- Created with Vectornator for iOS (http://vectornator.io/) --><!DOCTYPE svg PUBLIC "-//W3C//DTD SVG 1.1//EN" "http://www.w3.org/Graphics/SVG/1.1/DTD/svg11.dtd">
<svg height="100%" style="fill-rule:nonzero;clip-rule:evenodd;stroke-linecap:round;stroke-linejoin:round;" xmlns:xlink="http://www.w3.org/1999/xlink" xmlns="http://www.w3.org/2000/svg" xml:space="preserve" width="100%" xmlns:vectornator="http://vectornator.io" version="1.1" viewBox="0 0 512 512">
<metadata>
<vectornator:setting key="DimensionsVisible" value="1"/>
<vectornator:setting key="PencilOnly" value="0"/>
<vectornator:setting key="SnapToPoints" value="0"/>
<vectornator:setting key="OutlineMode" value="0"/>
<vectornator:setting key="CMYKEnabledKey" value="0"/>
<vectornator:setting key="RulersVisible" value="1"/>
<vectornator:setting key="SnapToEdges" value="0"/>
<vectornator:setting key="GuidesVisible" value="1"/>
<vectornator:setting key="DisplayWhiteBackground" value="0"/>
<vectornator:setting key="doHistoryDisabled" value="0"/>
<vectornator:setting key="SnapToGuides" value="1"/>
<vectornator:setting key="TimeLapseWatermarkDisabled" value="0"/>
<vectornator:setting key="Units" value="Pixels"/>
<vectornator:setting key="DynamicGuides" value="0"/>
<vectornator:setting key="IsolateActiveLayer" value="0"/>
<vectornator:setting key="SnapToGrid" value="0"/>
</metadata>
<defs/>
<g id="Capa 1" vectornator:layerName="Capa 1">
<g opacity="1">
<path d="M179.124+320.652C165.731+320.652+154.798+313.956+146.324+300.562C145.504+299.196+145.504+298.102+146.324+297.282C155.071+303.569+163.408+306.712+171.334+306.712C189.648+306.712+206.731+295.642+222.584+273.502C238.984+250.816+247.184+228.676+247.184+207.082C247.184+198.609+244.314+194.372+238.574+194.372C226.548+194.372+212.608+206.399+196.754+230.452C180.628+254.506+172.564+273.366+172.564+287.032C172.564+289.492+173.521+292.772+175.434+296.872C175.434+298.239+174.409+298.649+172.359+298.102C170.309+297.556+168.328+295.847+166.414+292.977C164.501+290.107+163.544+286.212+163.544+281.292C163.544+274.186+165.116+264.619+168.259+252.592C171.403+240.566+176.391+226.626+183.224+210.772L213.154+141.892C219.441+124.946+222.584+113.056+222.584+106.222C222.584+100.482+220.124+97.6123+215.204+97.6123L200.854+100.482C198.941+100.482+197.984+99.6623+197.984+98.0223C197.984+93.9223+203.041+91.8723+213.154+91.8723C223.541+91.8723+231.468+93.6489+236.934+97.2023C242.674+100.756+245.544+105.812+245.544+112.372C245.544+118.659+240.214+132.326+229.554+153.372L208.234+195.192C216.708+189.179+226.684+186.172+238.164+186.172C257.024+186.172+266.454+195.329+266.454+213.642C266.454+234.689+256.341+257.786+236.114+282.932C215.888+308.079+196.891+320.652+179.124+320.652Z" opacity="1" fill="#141414"/>
<path d="M163.134+494.082C144.001+494.082+128.079+488.752+115.369+478.092C102.659+467.432+96.3043+452.672+96.3043+433.812C96.3043+415.226+106.828+396.502+127.874+377.642C148.648+359.329+174.751+344.569+206.184+333.362C236.524+322.429+266.864+316.962+297.204+316.962C311.144+316.962+323.034+318.192+332.874+320.652C333.968+317.646+334.514+314.639+334.514+311.632C334.514+302.339+333.421+295.779+331.234+291.952C320.574+301.792+310.871+306.712+302.124+306.712C293.378+306.712+285.724+302.476+279.164+294.002C272.604+285.256+269.324+276.236+269.324+266.942C269.324+247.809+279.848+227.992+300.894+207.492C300.894+191.639+302.534+181.116+305.814+175.922C309.641+170.456+316.064+167.722+325.084+167.722C334.924+167.722+345.311+176.742+356.244+194.782C375.924+198.336+385.764+205.579+385.764+216.512C385.764+220.886+384.193+224.234+381.049+226.557C377.906+228.881+376.334+228.812+376.334+226.352C379.068+224.439+380.434+222.252+380.434+219.792C380.434+211.592+373.874+207.492+360.754+207.492C361.028+208.586+361.164+209.816+361.164+211.182C361.164+212.549+361.164+214.189+361.164+216.102C361.164+242.342+353.238+265.439+337.384+285.392C341.484+293.046+343.534+303.296+343.534+316.142C343.534+317.509+343.534+318.807+343.534+320.037C343.534+321.267+343.398+322.566+343.124+323.932C354.331+328.306+363.624+334.319+371.004+341.972C378.658+349.352+382.484+356.322+382.484+362.882C382.484+369.716+380.844+373.132+377.564+373.132C376.744+373.132+376.061+372.312+375.514+370.672C377.701+367.666+378.794+364.796+378.794+362.062C378.794+356.322+375.104+350.582+367.724+344.842C360.344+339.102+352.281+334.866+343.534+332.132C340.254+359.739+329.731+386.252+311.964+411.672C294.198+436.819+272.058+456.772+245.544+471.532C219.031+486.566+191.561+494.082+163.134+494.082ZM308.274+201.752C317.021+195.739+325.494+192.732+333.694+192.732L336.974+192.732C333.421+183.712+327.681+179.202+319.754+179.202C312.101+179.202+308.274+186.582+308.274+201.342L308.274+201.752ZM332.874+275.552C342.714+261.066+347.634+245.349+347.634+228.402C347.634+220.749+346.404+213.916+343.944+207.902C339.298+209.542+332.601+212.686+323.854+217.332C315.381+221.706+311.144+224.849+311.144+226.762C311.144+228.676+318.388+244.939+332.874+275.552ZM301.714+301.792C311.281+301.792+320.301+295.096+328.774+281.702L307.454+230.862C301.714+236.602+296.589+244.392+292.079+254.232C287.569+264.072+285.314+272.819+285.314+280.472C285.314+294.686+290.781+301.792+301.714+301.792ZM155.754+476.862C175.161+476.862+194.089+473.172+212.539+465.792C230.989+458.412+248.961+447.069+266.454+431.762C300.348+401.696+321.941+367.666+331.234+329.672C327.954+329.126+324.059+328.647+319.549+328.237C315.039+327.827+309.914+327.622+304.174+327.622C278.208+327.622+252.651+330.902+227.504+337.462C202.358+344.296+180.833+352.906+162.929+363.292C145.026+373.679+130.744+384.886+120.084+396.912C114.618+402.926+110.518+409.212+107.784+415.772C105.051+422.332+103.684+428.619+103.684+434.632C103.684+446.386+108.263+456.362+117.419+464.562C126.576+472.762+139.354+476.862+155.754+476.862Z" opacity="1" fill="#141414"/>
</g>
</g>
</svg>
